<svg xmlns="http://www.w3.org/2000/svg" viewBox="0 0 512 512" width="100%" height="100%">
  <defs>
    <linearGradient id="pinkGrad" x1="0%" y1="0%" x2="100%" y2="100%">
      <stop offset="0%" stop-color="#ec4899" />
      <stop offset="100%" stop-color="#f43f5e" />
    </linearGradient>
  </defs>
  
  <!-- Outer smooth squircle with pink gradient -->
  <rect x="32" y="32" width="448" height="448" rx="120" fill="url(#pinkGrad)" />
  
  <!-- Sleek White Shirt Icon inside -->
  <g transform="matrix(11 0 0 11 128 128)" stroke="#ffffff" stroke-width="1.75" fill="none" stroke-linecap="round" stroke-linejoin="round">
    <path d="M20.38 3.46L16 6.22l-4.38-2.76a2 2 0 0 0-2.11-.13l-4 2.25A2 2 0 0 0 4.5 7.31V19.5a2 2 0 0 0 2 2h11a2 2 0 0 0 2-2V7.31a2 2 0 0 0-1.01-1.74l-4-2.25a2 2 0 0 0-2.11.14z" />
    <path d="M12 21V9.5" />
    <path d="M4.5 12H19.5" />
  </g>
</svg>
